<svg width="16" height="16" viewBox="0 0 16 16" fill="none" xmlns="http://www.w3.org/2000/svg">
<g clip-path="url(#clip0_702_11774)">
<path fill-rule="evenodd" clip-rule="evenodd" d="M7.00076 15.1717L0.420411 12.0081C-0.140137 11.7319 -0.140137 11.3051 0.420411 11.054L2.71135 9.94922L6.97639 12.0081C7.53694 12.2843 8.43869 12.2843 8.97487 12.0081L13.2399 9.94922L15.5308 11.054C16.0914 11.3302 16.0914 11.757 15.5308 12.0081L8.9505 15.1717C8.43869 15.4228 7.53694 15.4228 7.00076 15.1717Z" fill="white" fill-opacity="0.5"/>
<path fill-rule="evenodd" clip-rule="evenodd" d="M7.00076 11.2799L0.420411 8.11629C-0.140137 7.8401 -0.140137 7.41326 0.420411 7.16217L2.6626 6.08252L7.00076 8.1665C7.56131 8.44269 8.46306 8.44269 8.99924 8.1665L13.3374 6.08252L15.5796 7.16217C16.1401 7.43836 16.1401 7.8652 15.5796 8.11629L8.99924 11.2799C8.43869 11.5561 7.53694 11.5561 7.00076 11.2799Z" fill="white" fill-opacity="0.75"/>
<path fill-rule="evenodd" clip-rule="evenodd" d="M7.00076 7.48853L0.420411 4.32489C-0.140137 4.0487 -0.140137 3.62186 0.420411 3.37078L7.00076 0.207143C7.56131 -0.0690476 8.46306 -0.0690476 8.99924 0.207143L15.5796 3.37078C16.1401 3.64697 16.1401 4.07381 15.5796 4.32489L8.99924 7.48853C8.43869 7.73961 7.53694 7.73961 7.00076 7.48853Z" fill="white"/>
</g>
<defs>
<clipPath id="clip0_702_11774">
<rect width="16" height="16" fill="white"/>
</clipPath>
</defs>
</svg>
